<?xml version="1.0" encoding="iso-8859-1"?>
<!-- Generator: Adobe Illustrator 26.0.1, SVG Export Plug-In . SVG Version: 6.00 Build 0)  -->
<svg version="1.1" xmlns="http://www.w3.org/2000/svg" xmlns:xlink="http://www.w3.org/1999/xlink" x="0px" y="0px"
	 viewBox="0 0 24 24" style="enable-background:new 0 0 24 24;" xml:space="preserve">
<g id="calendar-day">
	<path d="M7.5,16.5h3.857c0.354,0,0.643-0.289,0.643-0.643V12c0-0.354-0.289-0.643-0.643-0.643H7.5
		c-0.354,0-0.643,0.289-0.643,0.643v3.857C6.857,16.211,7.146,16.5,7.5,16.5z M21,6.214v14.143c0,1.065-0.864,1.929-1.929,1.929
		H4.929C3.864,22.286,3,21.422,3,20.357V6.214C3,5.15,3.864,4.286,4.929,4.286h1.929V2.196c0-0.265,0.217-0.482,0.482-0.482h1.607
		c0.265,0,0.482,0.217,0.482,0.482v2.089h5.143V2.196c0-0.265,0.217-0.482,0.482-0.482h1.607c0.265,0,0.482,0.217,0.482,0.482v2.089
		h1.929C20.136,4.286,21,5.15,21,6.214z M19.071,20.116V8.143H4.929v11.973c0,0.133,0.108,0.241,0.241,0.241H18.83
		C18.963,20.357,19.071,20.249,19.071,20.116z"/>
</g>
<g id="&#x30EC;&#x30A4;&#x30E4;&#x30FC;_1">
</g>
</svg>
