<?xml version="1.0" encoding="iso-8859-1"?>
<!-- Generator: Adobe Illustrator 26.0.1, SVG Export Plug-In . SVG Version: 6.00 Build 0)  -->
<svg version="1.1" xmlns="http://www.w3.org/2000/svg" xmlns:xlink="http://www.w3.org/1999/xlink" x="0px" y="0px"
	 viewBox="0 0 24 24" style="enable-background:new 0 0 24 24;" xml:space="preserve">
<g id="check">
	<g>
		<path d="M20.822,5.865l-0.473-0.429c-0.27-0.353-0.851-0.322-1.066-0.031L8.414,16.1l-3.671-3.62
			c-0.269-0.355-0.861-0.314-1.057-0.04l-0.509,0.468C3.06,13.062,3,13.239,3,13.433c0,0.207,0.07,0.386,0.205,0.518l4.689,4.629
			c0.199,0.199,0.404,0.241,0.54,0.241c0.197,0,0.379-0.081,0.539-0.24L20.794,6.909C20.929,6.777,21,6.598,21,6.391
			C21,6.197,20.94,6.02,20.822,5.865z"/>
	</g>
</g>
<g id="&#x30EC;&#x30A4;&#x30E4;&#x30FC;_1">
</g>
</svg>
