<?xml version="1.0" encoding="iso-8859-1"?>
<!-- Generator: Adobe Illustrator 26.0.1, SVG Export Plug-In . SVG Version: 6.00 Build 0)  -->
<svg version="1.1" xmlns="http://www.w3.org/2000/svg" xmlns:xlink="http://www.w3.org/1999/xlink" x="0px" y="0px"
	 viewBox="0 0 24 24" style="enable-background:new 0 0 24 24;" xml:space="preserve">
<g id="clock">
	<path d="M12,2C6.476,2,2,6.476,2,12s4.476,10,10,10s10-4.476,10-10S17.524,2,12,2z M12,20.065c-4.456,0-8.065-3.609-8.065-8.065
		S7.544,3.935,12,3.935S20.065,7.544,20.065,12S16.456,20.065,12,20.065z M14.492,15.855l-3.423-2.488
		c-0.125-0.093-0.198-0.238-0.198-0.391V6.355c0-0.266,0.218-0.484,0.484-0.484h1.29c0.266,0,0.484,0.218,0.484,0.484v5.714
		l2.694,1.96c0.218,0.157,0.262,0.46,0.105,0.677l-0.758,1.044C15.012,15.964,14.71,16.012,14.492,15.855L14.492,15.855z"/>
</g>
<g id="&#x30EC;&#x30A4;&#x30E4;&#x30FC;_1">
</g>
</svg>
