<?xml version="1.0" encoding="iso-8859-1"?>
<!-- Generator: Adobe Illustrator 26.0.1, SVG Export Plug-In . SVG Version: 6.00 Build 0)  -->
<svg version="1.1" xmlns="http://www.w3.org/2000/svg" xmlns:xlink="http://www.w3.org/1999/xlink" x="0px" y="0px"
	 viewBox="0 0 24 24" style="enable-background:new 0 0 24 24;" xml:space="preserve">
<g id="ellipsis-v">
	<path d="M12,3c-1.382,0-2.5,1.118-2.5,2.5S10.618,8,12,8c1.382,0,2.5-1.118,2.5-2.5S13.382,3,12,3z M12,6.5c-0.55,0-1-0.45-1-1
		s0.45-1,1-1c0.55,0,1,0.45,1,1S12.55,6.5,12,6.5z M12,16c-1.382,0-2.5,1.118-2.5,2.5S10.618,21,12,21c1.382,0,2.5-1.118,2.5-2.5
		S13.382,16,12,16z M12,19.5c-0.55,0-1-0.45-1-1s0.45-1,1-1c0.55,0,1,0.45,1,1S12.55,19.5,12,19.5z M12,9.5
		c-1.382,0-2.5,1.118-2.5,2.5s1.118,2.5,2.5,2.5c1.382,0,2.5-1.118,2.5-2.5S13.382,9.5,12,9.5z M12,13c-0.55,0-1-0.45-1-1
		s0.45-1,1-1c0.55,0,1,0.45,1,1S12.55,13,12,13z"/>
</g>
<g id="&#x30EC;&#x30A4;&#x30E4;&#x30FC;_1">
</g>
</svg>
