<?xml version="1.0" encoding="iso-8859-1"?>
<!-- Generator: Adobe Illustrator 26.0.1, SVG Export Plug-In . SVG Version: 6.00 Build 0)  -->
<svg version="1.1" xmlns="http://www.w3.org/2000/svg" xmlns:xlink="http://www.w3.org/1999/xlink" x="0px" y="0px"
	 viewBox="0 0 24 24" style="enable-background:new 0 0 24 24;" xml:space="preserve">
<g id="exclamation-circle">
	<path d="M12,2C6.478,2,2,6.479,2,12c0,5.524,4.478,10,10,10s10-4.476,10-10C22,6.479,17.522,2,12,2z M12,20.065
		c-4.457,0-8.065-3.606-8.065-8.065c0-4.455,3.608-8.065,8.065-8.065c4.455,0,8.065,3.608,8.065,8.065
		C20.065,16.457,16.458,20.065,12,20.065z M13.694,15.871c0,0.934-0.76,1.694-1.694,1.694s-1.694-0.76-1.694-1.694
		s0.76-1.694,1.694-1.694S13.694,14.937,13.694,15.871z M10.413,7.347l0.274,5.484c0.013,0.258,0.225,0.46,0.483,0.46h1.66
		c0.258,0,0.47-0.202,0.483-0.46l0.274-5.484c0.014-0.276-0.207-0.508-0.483-0.508h-2.208C10.619,6.839,10.399,7.07,10.413,7.347z"
		/>
</g>
<g id="&#x30EC;&#x30A4;&#x30E4;&#x30FC;_1">
</g>
</svg>
