<?xml version="1.0" encoding="iso-8859-1"?>
<!-- Generator: Adobe Illustrator 26.0.1, SVG Export Plug-In . SVG Version: 6.00 Build 0)  -->
<svg version="1.1" xmlns="http://www.w3.org/2000/svg" xmlns:xlink="http://www.w3.org/1999/xlink" x="0px" y="0px"
	 viewBox="0 0 24 24" style="enable-background:new 0 0 24 24;" xml:space="preserve">
<g id="exclamation-triangle">
	<path d="M10.501,10.096l0.252,4.156c0.014,0.235,0.215,0.419,0.458,0.419h1.58c0.243,0,0.443-0.184,0.458-0.419l0.252-4.156
		c0.015-0.256-0.194-0.471-0.458-0.471h-2.083C10.695,9.625,10.485,9.841,10.501,10.096L10.501,10.096z M13.604,16.75
		c0,0.861-0.718,1.559-1.604,1.559s-1.604-0.698-1.604-1.559s0.718-1.559,1.604-1.559S13.604,15.889,13.604,16.75z M13.588,3.39
		c-0.704-1.186-2.471-1.188-3.176,0L1.247,18.829C0.544,20.014,1.425,21.5,2.835,21.5h18.329c1.408,0,2.293-1.484,1.588-2.671
		L13.588,3.39L13.588,3.39z M3.032,19.385l8.77-14.769c0.088-0.149,0.309-0.149,0.397,0l8.77,14.769
		c0.088,0.148-0.022,0.334-0.198,0.334H3.23C3.054,19.719,2.943,19.533,3.032,19.385L3.032,19.385z"/>
</g>
<g id="&#x30EC;&#x30A4;&#x30E4;&#x30FC;_1">
</g>
</svg>
