<?xml version="1.0" encoding="iso-8859-1"?>
<!-- Generator: Adobe Illustrator 26.0.1, SVG Export Plug-In . SVG Version: 6.00 Build 0)  -->
<svg version="1.1" xmlns="http://www.w3.org/2000/svg" xmlns:xlink="http://www.w3.org/1999/xlink" x="0px" y="0px"
	 viewBox="0 0 24 24" style="enable-background:new 0 0 24 24;" xml:space="preserve">
<g id="search">
	<path d="M20.876,19.484l-4.268-4.268c-0.081-0.081-0.186-0.123-0.299-0.123h-0.464c1.107-1.283,1.779-2.953,1.779-4.781
		C17.624,6.273,14.351,3,10.312,3S3,6.273,3,10.312s3.273,7.312,7.312,7.312c1.828,0,3.498-0.671,4.781-1.779v0.464
		c0,0.112,0.046,0.218,0.123,0.299l4.268,4.268c0.165,0.165,0.432,0.165,0.598,0l0.794-0.794
		C21.041,19.916,21.041,19.649,20.876,19.484z M10.312,15.812c-3.039,0-5.5-2.461-5.5-5.5s2.461-5.5,5.5-5.5s5.5,2.461,5.5,5.5
		S13.351,15.812,10.312,15.812z"/>
</g>
<g id="&#x30EC;&#x30A4;&#x30E4;&#x30FC;_1">
</g>
</svg>
