<?xml version="1.0" encoding="iso-8859-1"?>
<!-- Generator: Adobe Illustrator 26.0.1, SVG Export Plug-In . SVG Version: 6.00 Build 0)  -->
<svg version="1.1" xmlns="http://www.w3.org/2000/svg" xmlns:xlink="http://www.w3.org/1999/xlink" x="0px" y="0px"
	 viewBox="0 0 24 24" style="enable-background:new 0 0 24 24;" xml:space="preserve">
<g id="times">
	<path d="M17.409,5.149L12,10.558L6.591,5.149c-0.198-0.198-0.523-0.198-0.721,0L5.149,5.87c-0.198,0.198-0.198,0.523,0,0.721
		L10.558,12l-5.409,5.409c-0.198,0.198-0.198,0.523,0,0.721l0.721,0.721c0.198,0.198,0.523,0.198,0.721,0L12,13.442l5.409,5.409
		c0.198,0.198,0.523,0.198,0.721,0l0.721-0.721c0.198-0.198,0.198-0.523,0-0.721L13.442,12l5.409-5.409
		c0.198-0.198,0.198-0.523,0-0.721L18.13,5.149C17.932,4.95,17.607,4.95,17.409,5.149z"/>
</g>
<g id="&#x30EC;&#x30A4;&#x30E4;&#x30FC;_1">
</g>
</svg>
