<?xml version="1.0" encoding="iso-8859-1"?>
<!-- Generator: Adobe Illustrator 26.0.1, SVG Export Plug-In . SVG Version: 6.00 Build 0)  -->
<svg version="1.1" xmlns="http://www.w3.org/2000/svg" xmlns:xlink="http://www.w3.org/1999/xlink" x="0px" y="0px"
	 viewBox="0 0 24 24" style="enable-background:new 0 0 24 24;" xml:space="preserve">
<g id="apple">
	<path d="M17.864,11.684c0.022-1.675,0.9-3.222,2.327-4.099c-0.904-1.292-2.365-2.081-3.941-2.13
		c-1.658-0.174-3.265,0.992-4.11,0.992c-0.861,0-2.162-0.975-3.563-0.946c-1.843,0.06-3.52,1.082-4.416,2.693
		c-1.909,3.306-0.485,8.165,1.344,10.837c0.915,1.309,1.985,2.77,3.384,2.718c1.369-0.057,1.881-0.873,3.534-0.873
		c1.638,0,2.118,0.873,3.545,0.84c1.47-0.024,2.395-1.314,3.278-2.635c0.658-0.932,1.164-1.963,1.499-3.053
		C19.001,15.289,17.866,13.579,17.864,11.684z M15.167,3.696c0.801-0.962,1.196-2.198,1.1-3.446
		c-1.224,0.129-2.355,0.714-3.167,1.639c-0.802,0.913-1.208,2.107-1.129,3.319C13.212,5.22,14.389,4.663,15.167,3.696z"/>
</g>
<g id="&#x30EC;&#x30A4;&#x30E4;&#x30FC;_1">
</g>
</svg>
