<?xml version="1.0" encoding="iso-8859-1"?>
<!-- Generator: Adobe Illustrator 26.0.1, SVG Export Plug-In . SVG Version: 6.00 Build 0)  -->
<svg version="1.1" xmlns="http://www.w3.org/2000/svg" xmlns:xlink="http://www.w3.org/1999/xlink" x="0px" y="0px"
	 viewBox="0 0 24 24" style="enable-background:new 0 0 24 24;" xml:space="preserve">
<g id="github">
	<path style="fill-rule:evenodd;clip-rule:evenodd;" d="M22,12.247c0,4.417-2.862,8.164-6.833,9.488
		c-0.507,0.098-0.687-0.214-0.687-0.48c0-0.329,0.011-1.406,0.011-2.744c0-0.933-0.32-1.541-0.678-1.852
		c2.227-0.248,4.566-1.093,4.566-4.934c0-1.092-0.388-1.984-1.029-2.684c0.104-0.252,0.446-1.269-0.098-2.646
		c0,0-0.838-0.269-2.747,1.025C13.706,7.198,12.85,7.086,12,7.083c-0.85,0.004-1.705,0.115-2.503,0.337
		C7.586,6.125,6.746,6.394,6.746,6.394C6.203,7.771,6.546,8.788,6.649,9.04c-0.64,0.7-1.03,1.592-1.03,2.684
		c0,3.832,2.335,4.689,4.556,4.942c-0.286,0.25-0.545,0.691-0.635,1.337c-0.571,0.256-2.018,0.697-2.91-0.831
		c0,0-0.529-0.96-1.533-1.031c0,0-0.976-0.013-0.068,0.608c0,0,0.655,0.307,1.11,1.463c0,0,0.587,1.785,3.369,1.18
		c0.004,0.836,0.014,1.623,0.014,1.862c0,0.264-0.184,0.574-0.683,0.481C4.865,20.414,2,16.665,2,12.247c0-5.523,4.478-10,10-10
		C17.523,2.247,22,6.724,22,12.247z M5.788,16.605c0.025-0.05-0.016-0.118-0.089-0.151c-0.072-0.034-0.151-0.02-0.172,0.031
		c-0.023,0.05,0.017,0.118,0.09,0.15C5.687,16.669,5.766,16.654,5.788,16.605L5.788,16.605z M5.664,16.513 M6.193,17.056
		c0.05-0.045,0.037-0.137-0.028-0.208c-0.065-0.07-0.156-0.09-0.205-0.046c-0.048,0.045-0.036,0.138,0.029,0.208
		C6.052,17.08,6.145,17.101,6.193,17.056L6.193,17.056z M6.097,16.954 M6.587,17.632c0.063-0.044,0.063-0.15,0.001-0.241
		c-0.063-0.088-0.162-0.127-0.224-0.084c-0.063,0.043-0.063,0.149-0.001,0.238C6.425,17.635,6.526,17.675,6.587,17.632L6.587,17.632
		z M6.587,17.632 M7.127,18.189c0.058-0.06,0.032-0.175-0.055-0.256c-0.086-0.082-0.203-0.099-0.259-0.038
		c-0.055,0.06-0.031,0.175,0.057,0.256C6.955,18.233,7.072,18.249,7.127,18.189L7.127,18.189z M7.127,18.189 M7.872,18.512
		c0.023-0.08-0.051-0.171-0.164-0.205c-0.114-0.036-0.227,0.001-0.25,0.08c-0.023,0.079,0.051,0.171,0.164,0.205
		C7.736,18.626,7.848,18.59,7.872,18.512L7.872,18.512z M7.872,18.512 M8.691,18.572c0-0.082-0.098-0.148-0.216-0.146
		c-0.12,0.002-0.213,0.07-0.213,0.153c0.001,0.081,0.098,0.148,0.218,0.145C8.597,18.723,8.693,18.654,8.691,18.572L8.691,18.572z
		 M8.691,18.572 M9.452,18.442c-0.015-0.082-0.121-0.13-0.239-0.11c-0.116,0.021-0.2,0.104-0.186,0.186
		c0.015,0.08,0.122,0.13,0.238,0.108C9.384,18.605,9.466,18.523,9.452,18.442L9.452,18.442z M9.452,18.442"/>
</g>
<g id="&#x30EC;&#x30A4;&#x30E4;&#x30FC;_1">
</g>
</svg>
