<?xml version="1.0" encoding="iso-8859-1"?>
<!-- Generator: Adobe Illustrator 26.0.1, SVG Export Plug-In . SVG Version: 6.00 Build 0)  -->
<svg version="1.1" xmlns="http://www.w3.org/2000/svg" xmlns:xlink="http://www.w3.org/1999/xlink" x="0px" y="0px"
	 viewBox="0 0 24 24" style="enable-background:new 0 0 24 24;" xml:space="preserve">
<g id="google-colored">
	<g>
		<path style="fill:#4285F4;" d="M21.8,12.222c0-0.822-0.067-1.422-0.211-2.044H12.2v3.711h5.511C17.6,14.811,17,16.2,15.667,17.133
			l-0.019,0.124l2.969,2.3l0.206,0.021C20.711,17.833,21.8,15.267,21.8,12.222"/>
		<path style="fill:#34A853;" d="M12.2,22c2.7,0,4.967-0.889,6.622-2.422l-3.156-2.445c-0.844,0.589-1.978,1-3.467,1
			c-2.644,0-4.889-1.744-5.689-4.155l-0.117,0.01l-3.087,2.389l-0.04,0.112C4.911,19.755,8.289,22,12.2,22"/>
		<path style="fill:#FBBC05;" d="M6.511,13.978C6.3,13.356,6.178,12.689,6.178,12c0-0.689,0.122-1.356,0.322-1.978L6.494,9.89
			L3.369,7.462L3.267,7.511C2.589,8.867,2.2,10.389,2.2,12s0.389,3.133,1.067,4.489L6.511,13.978"/>
		<path style="fill:#EB4335;" d="M12.2,5.867c1.878,0,3.144,0.811,3.867,1.489L18.889,4.6C17.156,2.989,14.9,2,12.2,2
			C8.289,2,4.911,4.244,3.267,7.511L6.5,10.022C7.311,7.611,9.556,5.867,12.2,5.867"/>
	</g>
</g>
<g id="&#x30EC;&#x30A4;&#x30E4;&#x30FC;_1">
</g>
</svg>
