<?xml version="1.0" encoding="iso-8859-1"?>
<!-- Generator: Adobe Illustrator 26.0.1, SVG Export Plug-In . SVG Version: 6.00 Build 0)  -->
<svg version="1.1" xmlns="http://www.w3.org/2000/svg" xmlns:xlink="http://www.w3.org/1999/xlink" x="0px" y="0px"
	 viewBox="0 0 24 24" style="enable-background:new 0 0 24 24;" xml:space="preserve">
<g id="google">
	<path d="M12.2,10.178v3.711h5.511C17.6,14.811,17,16.2,15.667,17.133c-0.844,0.589-1.978,1-3.467,1
		c-2.644,0-4.889-1.744-5.689-4.155C6.3,13.356,6.178,12.689,6.178,12c0-0.689,0.122-1.356,0.322-1.978
		c0.811-2.411,3.056-4.156,5.7-4.156c1.878,0,3.144,0.811,3.867,1.489L18.889,4.6C17.156,2.989,14.9,2,12.2,2
		C8.289,2,4.911,4.244,3.267,7.511C2.589,8.867,2.2,10.389,2.2,12s0.389,3.133,1.067,4.489C4.911,19.755,8.289,22,12.2,22
		c2.7,0,4.967-0.889,6.622-2.422c1.889-1.744,2.978-4.311,2.978-7.356c0-0.822-0.067-1.422-0.211-2.044H12.2z"/>
</g>
<g id="&#x30EC;&#x30A4;&#x30E4;&#x30FC;_1">
</g>
</svg>
