<?xml version="1.0" encoding="iso-8859-1"?>
<!-- Generator: Adobe Illustrator 26.0.1, SVG Export Plug-In . SVG Version: 6.00 Build 0)  -->
<svg version="1.1" xmlns="http://www.w3.org/2000/svg" xmlns:xlink="http://www.w3.org/1999/xlink" x="0px" y="0px"
	 viewBox="0 0 24 24" style="enable-background:new 0 0 24 24;" xml:space="preserve">
<g id="instagram">
	<path d="M12,7.4c-2.5,0-4.6,2.1-4.6,4.6s2.1,4.6,4.6,4.6s4.6-2.1,4.6-4.6S14.5,7.4,12,7.4z M12,15c-1.6,0-3-1.4-3-3s1.4-3,3-3
		s3,1.4,3,3S13.6,15,12,15L12,15z M17.9,7.2c0,0.6-0.5,1.1-1.1,1.1s-1.1-0.5-1.1-1.1s0.5-1.1,1.1-1.1C17.4,6.1,17.9,6.6,17.9,7.2z
		 M20.9,8.3c-0.1-1.4-0.4-2.7-1.4-3.8c-1.1-1.1-2.3-1.4-3.8-1.4c-1.5-0.1-6-0.1-7.4,0C6.9,3.2,5.6,3.4,4.5,4.5S3.2,6.9,3.1,8.3
		c-0.1,1.5-0.1,6,0,7.4s0.4,2.7,1.4,3.8c1.1,1.1,2.3,1.4,3.8,1.4c1.5,0.1,6,0.1,7.4,0s2.7-0.4,3.8-1.4c1.1-1.1,1.4-2.3,1.4-3.8
		C21,14.3,21,9.7,20.9,8.3L20.9,8.3z M19,17.3c-0.3,0.8-0.9,1.4-1.7,1.7c-1.2,0.5-4,0.4-5.3,0.4S7.8,19.5,6.7,19
		c-0.8-0.3-1.4-0.9-1.7-1.7c-0.5-1.2-0.4-4-0.4-5.3S4.5,7.8,5,6.7C5.2,5.9,5.9,5.3,6.7,5c1.2-0.5,4-0.4,5.3-0.4s4.2-0.1,5.3,0.4
		c0.8,0.3,1.4,0.9,1.7,1.7c0.5,1.2,0.4,4,0.4,5.3S19.5,16.2,19,17.3z"/>
</g>
<g id="&#x30EC;&#x30A4;&#x30E4;&#x30FC;_1">
</g>
</svg>
