<?xml version="1.0" encoding="iso-8859-1"?>
<!-- Generator: Adobe Illustrator 26.0.1, SVG Export Plug-In . SVG Version: 6.00 Build 0)  -->
<svg version="1.1" xmlns="http://www.w3.org/2000/svg" xmlns:xlink="http://www.w3.org/1999/xlink" x="0px" y="0px"
	 viewBox="0 0 24 24" style="enable-background:new 0 0 24 24;" xml:space="preserve">
<g id="line">
	<path d="M11.95,2.933c-5.2,0-9.5,3.4-9.5,7.7c0,3.8,3.4,7,7.9,7.6c1.1,0.3,0.9,0.7,0.8,2.2c0,0.3-0.2,0.9,0.9,0.5
		c1-0.4,5.5-3.2,7.5-5.5c1.3-1.5,2-3,2-4.7C21.35,6.333,17.15,2.933,11.95,2.933z M8.55,12.833c0,0.1-0.1,0.2-0.2,0.2h-2.6
		c-0.1,0-0.1,0-0.1-0.1l-0.1-0.1v-4.1c0-0.1,0.1-0.2,0.2-0.2h0.7c0.1,0,0.2,0.1,0.2,0.2v3.3h1.8c0.1,0,0.2,0.1,0.2,0.2
		C8.55,12.133,8.55,12.833,8.55,12.833z M10.25,12.833c0,0.1-0.1,0.2-0.2,0.2h-0.7c-0.1,0-0.2-0.1-0.2-0.2v-4.1
		c0-0.1,0.1-0.2,0.2-0.2h0.7c0.1,0,0.2,0.1,0.2,0.2L10.25,12.833z M14.75,12.833c0,0.1-0.1,0.2-0.2,0.2h-0.7c-0.1,0-0.1,0-0.2-0.1
		l-1.9-2.6v2.5c0,0.1-0.1,0.2-0.2,0.2h-0.6c-0.1,0-0.2-0.1-0.2-0.2v-4.1c0-0.1,0.1-0.2,0.2-0.2h0.7c0.1,0,0.1,0,0.2,0.1l1.9,2.6
		v-2.5c0-0.1,0.1-0.2,0.2-0.2h0.7c0.1,0,0.2,0.1,0.2,0.2L14.75,12.833L14.75,12.833z M18.45,9.333c0,0.1-0.1,0.2-0.2,0.2h-1.8v0.7
		h1.8c0.1,0,0.2,0.1,0.2,0.2v0.7c0,0.1-0.1,0.2-0.2,0.2h-1.8v0.6h1.8c0.1,0,0.2,0.1,0.2,0.2v0.7c0,0.1-0.1,0.2-0.2,0.2h-2.6
		c-0.1,0-0.2-0.1-0.2-0.2v-4.2c0-0.1,0.1-0.2,0.2-0.2h2.6c0.1,0,0.2,0.1,0.2,0.2V9.333z"/>
</g>
<g id="&#x30EC;&#x30A4;&#x30E4;&#x30FC;_1">
</g>
</svg>
