<?xml version="1.0" encoding="iso-8859-1"?>
<!-- Generator: Adobe Illustrator 26.0.1, SVG Export Plug-In . SVG Version: 6.00 Build 0)  -->
<svg version="1.1" xmlns="http://www.w3.org/2000/svg" xmlns:xlink="http://www.w3.org/1999/xlink" x="0px" y="0px"
	 viewBox="0 0 24 24" style="enable-background:new 0 0 24 24;" xml:space="preserve">
<g id="pocket">
	<path d="M19.4,4.5H4.6C3.7,4.5,3,5.2,3,6.1v5.4c0,5,4,9,9,9s9-4,9-9V6.1C21,5.2,20.3,4.5,19.4,4.5z M12.9,15.3
		c-0.5,0.5-1.3,0.4-1.7,0c-4.6-4.4-4.6-4.2-4.6-4.9c0-0.7,0.6-1.2,1.2-1.2c0.7,0,0.6,0.2,4.2,3.6c3.6-3.5,3.6-3.6,4.2-3.6
		c0.7,0,1.2,0.6,1.2,1.2C17.5,11,17.4,10.9,12.9,15.3L12.9,15.3z"/>
</g>
<g id="&#x30EC;&#x30A4;&#x30E4;&#x30FC;_1">
</g>
</svg>
