<?xml version="1.0" encoding="utf-8"?>
<!-- Generator: Adobe Illustrator 26.3.1, SVG Export Plug-In . SVG Version: 6.00 Build 0)  -->
<svg version="1.1" id="レイヤー_1" xmlns="http://www.w3.org/2000/svg" xmlns:xlink="http://www.w3.org/1999/xlink" x="0px"
	 y="0px" viewBox="0 0 24 24" style="enable-background:new 0 0 24 24;" xml:space="preserve">
<g id="twitter">
	<g>
		<path d="M8.5,20.3C8.5,20.3,8.5,20.3,8.5,20.3c-2.3,0-4.4-0.6-6.2-1.8C2,18.3,1.9,17.9,2,17.6c0.1-0.3,0.4-0.5,0.7-0.5
			c0.3,0,0.6,0.1,0.8,0c1,0,2-0.2,2.9-0.6c-1.1-0.5-2-1.5-2.4-2.7c-0.1-0.2,0-0.5,0.1-0.7c-0.9-0.8-1.5-2-1.5-3.4
			c0-0.2,0.1-0.5,0.3-0.6c0.1,0,0.1-0.1,0.2-0.1C2.6,7.8,2.6,6.1,3.4,4.8c0.1-0.2,0.3-0.3,0.5-0.3c0.2,0,0.5,0.1,0.6,0.3
			c1.6,2,4,3.3,6.5,3.7c0-1.3,0.5-2.5,1.4-3.4c1.7-1.6,4.4-1.6,6.1-0.1c0.7-0.2,1.3-0.4,1.9-0.8C20.7,4,21,4,21.2,4.2
			c0.2,0.2,0.3,0.5,0.2,0.8c-0.1,0.2-0.1,0.4-0.2,0.6c0.2,0,0.5,0.1,0.6,0.2c0.2,0.2,0.2,0.6,0,0.8c-0.5,0.7-1.1,1.4-1.8,1.9
			c0,0.1,0,0.1,0,0.2C20.1,14.4,15.8,20.3,8.5,20.3z M8.5,18.9C8.6,18.9,8.6,18.9,8.5,18.9c6.4,0,10.2-5.2,10.2-10.2
			c0-0.2,0-0.3,0-0.4c0-0.2,0.1-0.5,0.3-0.6c0.1,0,0.1-0.1,0.2-0.1c-0.3,0-0.6-0.2-0.7-0.5c-0.1-0.3,0-0.6,0.2-0.8
			c-0.1,0-0.1,0-0.2,0c-0.2,0-0.5,0-0.6-0.2c-1.2-1.3-3.2-1.3-4.4-0.1c-0.8,0.8-1.2,1.9-0.9,3c0,0.2,0,0.4-0.1,0.6
			c-0.1,0.2-0.4,0.3-0.6,0.2C9,9.7,6.2,8.5,4.2,6.4C4,7.7,4.5,8.9,5.6,9.7c0.3,0.2,0.4,0.5,0.3,0.8c-0.1,0.3-0.4,0.5-0.7,0.5
			c-0.3,0-0.6,0-0.8-0.1c0.4,1,1.2,1.8,2.3,2c0.3,0.1,0.5,0.3,0.6,0.7S7,14.1,6.7,14.2c-0.2,0.1-0.5,0.1-0.7,0.1
			c0.6,0.7,1.4,1.2,2.4,1.2c0.3,0,0.6,0.2,0.6,0.5c0.1,0.3,0,0.6-0.2,0.8c-1,0.8-2.1,1.3-3.3,1.6C6.5,18.7,7.5,18.9,8.5,18.9
			C8.5,18.9,8.5,18.9,8.5,18.9z"/>
	</g>
</g>
<g id="レイヤー_1_00000147899603491483061360000009690760692356703361_">
</g>
</svg>
