<?xml version="1.0" encoding="iso-8859-1"?>
<!-- Generator: Adobe Illustrator 26.0.1, SVG Export Plug-In . SVG Version: 6.00 Build 0)  -->
<svg version="1.1" xmlns="http://www.w3.org/2000/svg" xmlns:xlink="http://www.w3.org/1999/xlink" x="0px" y="0px"
	 viewBox="0 0 24 24" style="enable-background:new 0 0 24 24;" xml:space="preserve">
<g id="twitter">
	<path d="M8.29,20.126c7.547,0,11.675-6.253,11.675-11.675c0-0.178,0-0.354-0.012-0.53c0.803-0.581,1.496-1.3,2.047-2.124
		c-0.749,0.332-1.543,0.549-2.357,0.646c0.857-0.513,1.498-1.319,1.804-2.27c-0.805,0.478-1.687,0.815-2.606,0.996
		c-1.554-1.652-4.153-1.732-5.806-0.178c-1.066,1.002-1.518,2.496-1.187,3.921C8.55,8.745,5.476,7.187,3.392,4.623
		c-1.089,1.875-0.533,4.273,1.27,5.478C4.009,10.081,3.371,9.905,2.8,9.587c0,0.017,0,0.034,0,0.052
		c0.001,1.953,1.377,3.636,3.292,4.022c-0.604,0.165-1.238,0.189-1.853,0.07c0.538,1.672,2.078,2.817,3.834,2.85
		c-1.453,1.142-3.248,1.762-5.096,1.76C2.65,18.341,2.324,18.321,2,18.282c1.877,1.204,4.06,1.843,6.29,1.84"/>
</g>
<g id="&#x30EC;&#x30A4;&#x30E4;&#x30FC;_1">
</g>
</svg>
