<?xml version="1.0" encoding="iso-8859-1"?>
<!-- Generator: Adobe Illustrator 26.0.1, SVG Export Plug-In . SVG Version: 6.00 Build 0)  -->
<svg version="1.1" xmlns="http://www.w3.org/2000/svg" xmlns:xlink="http://www.w3.org/1999/xlink" x="0px" y="0px"
	 viewBox="0 0 24 24" style="enable-background:new 0 0 24 24;" xml:space="preserve">
<g id="vimeo-alt">
	<path d="M11.083,21c-1.533,0-2.769-1.223-3.674-3.635c-0.246-0.887-0.445-1.636-0.63-2.332c-0.612-2.307-1.244-4.685-1.723-5.37
		c-0.173,0.107-0.446,0.285-0.869,0.58c-0.437,0.303-1.037,0.213-1.363-0.21L1.956,8.909C1.634,8.492,1.692,7.895,2.088,7.547
		C2.486,7.198,2.88,6.841,3.266,6.492c1.937-1.751,3.467-3.134,4.836-3.258c1.15-0.114,3.172,0.23,3.738,3.793
		c0.24,1.517,0.762,4.82,1.235,5.975c0.172-0.199,0.43-0.539,0.799-1.121c0.897-1.42,1.071-2.08,1.095-2.346
		c0.038-0.358-0.028-0.467-0.029-0.468c-0.079-0.051-0.548-0.082-1.195,0.196c-0.358,0.154-0.772,0.085-1.062-0.174
		c-0.29-0.26-0.402-0.664-0.289-1.037c1.311-4.296,4.107-5.113,6.201-5.048c1.1,0.029,1.981,0.388,2.616,1.069
		c0.757,0.812,1.104,2.046,1.032,3.668c0,0,0,0.001,0,0.001c-0.094,2.036-1.397,4.641-3.985,7.966C15.52,19.267,13.172,21,11.083,21
		z M5.079,7.55c1.784,0.008,2.364,2.193,3.632,6.969c0.184,0.693,0.382,1.438,0.598,2.231C9.839,18.148,10.496,19,11.083,19
		c0.967,0,2.722-0.784,5.592-4.516c2.858-3.672,3.519-5.742,3.569-6.833l0,0c0.047-1.05-0.125-1.816-0.497-2.215
		c-0.258-0.277-0.654-0.419-1.211-0.434c-1.079-0.035-2.522,0.177-3.572,2.047c0.448,0.041,0.848,0.179,1.169,0.415
		c0.45,0.332,0.958,0.993,0.825,2.264c-0.072,0.8-0.516,1.829-1.396,3.222c-0.813,1.28-1.7,2.516-2.908,2.258
		c-1.39-0.288-1.869-2.029-2.792-7.869C9.509,5.107,8.655,5.192,8.289,5.225C7.661,5.282,6.301,6.453,5.079,7.55z M5.332,9.507
		L5.332,9.507L5.332,9.507z M21.244,7.695h0.01H21.244z"/>
</g>
<g id="&#x30EC;&#x30A4;&#x30E4;&#x30FC;_1">
</g>
</svg>
