<?xml version="1.0" encoding="iso-8859-1"?>
<!-- Generator: Adobe Illustrator 26.0.1, SVG Export Plug-In . SVG Version: 6.00 Build 0)  -->
<svg version="1.1" xmlns="http://www.w3.org/2000/svg" xmlns:xlink="http://www.w3.org/1999/xlink" x="0px" y="0px"
	 viewBox="0 0 24 24" style="enable-background:new 0 0 24 24;" xml:space="preserve">
<g id="vimeo">
	<path d="M20.243,7.696c-0.083,1.801-1.338,4.267-3.775,7.397C13.953,18.364,11.826,20,10.083,20c-1.078,0-1.991-0.995-2.738-2.986
		c-1.454-5.336-2.073-8.463-3.275-8.463c-0.14,0-0.624,0.293-1.454,0.871L1.748,8.299c2.131-1.871,4.167-3.953,5.444-4.068
		c1.441-0.14,2.325,0.847,2.66,2.953c1.185,7.496,1.71,8.628,3.866,5.233c0.772-1.223,1.19-2.152,1.247-2.792
		c0.198-1.896-1.479-1.768-2.614-1.28c0.909-2.978,2.648-4.424,5.212-4.341C19.455,4.053,20.351,5.288,20.243,7.696L20.243,7.696z"
		/>
</g>
<g id="&#x30EC;&#x30A4;&#x30E4;&#x30FC;_1">
</g>
</svg>
